<svg xmlns="http://www.w3.org/2000/svg" viewBox="0 0 24 24"><path d="M12.206.793c.99 0 4.347.276 5.93 3.821.529 1.193.403 3.219.299 4.847l-.003.06c-.012.18-.022.345-.03.51.075.045.203.09.401.09.3-.016.659-.12 1.033-.301.165-.088.344-.104.464-.104.182 0 .359.029.509.09.45.149.734.479.734.838.015.449-.39.839-1.213 1.168-.089.029-.209.075-.344.119-.45.135-1.139.36-1.333.81-.09.225-.061.524.12.868l.015.015c.061.12 1.516 2.997 4.408 3.476.225.034.39.234.375.464 0 .06-.015.135-.03.195-.24.57-1.273.989-3.146 1.284-.061.09-.12.45-.196.75-.075.272-.149.542-.27.812-.09.18-.255.281-.464.281-.165 0-.343-.045-.529-.105-.36-.119-.778-.225-1.319-.225-.314 0-.643.029-.972.074-.643.09-1.197.479-1.84.929-.913.643-1.95 1.367-3.567 1.367-.0739 0-.142-.005-.21-.009l-.07-.005c-1.583 0-2.62-.724-3.521-1.353-.643-.45-1.197-.839-1.84-.929-.329-.045-.658-.074-.972-.074-.541 0-.959.106-1.319.225-.186.06-.364.105-.529.105-.21 0-.374-.101-.464-.282-.121-.27-.195-.54-.27-.811-.076-.3-.135-.66-.196-.75-1.873-.296-2.906-.715-3.146-1.284-.015-.061-.03-.135-.03-.196-.015-.23.15-.43.375-.464 2.892-.479 4.347-3.356 4.408-3.476l.015-.015c.181-.345.21-.644.12-.869-.194-.45-.883-.674-1.333-.81-.135-.044-.255-.09-.344-.119-.823-.329-1.228-.719-1.213-1.168 0-.36.284-.689.734-.838.15-.061.327-.09.509-.09.12 0 .299.016.464.105.374.18.733.285 1.033.3.198 0 .326-.045.401-.09-.008-.165-.018-.33-.03-.51l-.003-.06c-.104-1.628-.23-3.654.299-4.847C7.853 1.069 11.215.793 12.206.793z"/></svg>
